# Blender 4.0.2
# www.blender.org
mtllib jurassichouse_model_published.mtl
o Cube
v 24.141052 0.194438 -192.840515
v 24.141052 5.816759 -192.840515
v 27.188086 0.194438 -205.557388
v 27.188086 5.816759 -205.557388
v 46.967865 0.194438 -187.371078
v 46.967865 5.816759 -187.371078
v 50.014900 0.194438 -200.087952
v 50.014900 5.816759 -200.087952
v 40.834644 0.194438 -202.287598
v 40.834644 5.816759 -202.287598
v 37.787613 0.194438 -189.570724
v 37.787613 5.816759 -189.570724
v 40.825726 5.816759 -203.070740
v 51.145432 5.816759 -200.598083
v 51.145432 0.194438 -200.598083
v 47.720203 0.194438 -186.302795
v 47.720203 5.816759 -186.302795
v 37.400497 0.194438 -188.775452
v 40.825726 0.194438 -203.070740
v 37.400497 5.816759 -188.775452
v 40.834644 6.382622 -202.287598
v 50.014900 6.382622 -200.087952
v 37.400497 6.382622 -188.775452
v 37.787613 6.382622 -189.570724
v 46.967865 6.382622 -187.371078
v 40.825726 6.382622 -203.070740
v 51.145432 6.382622 -200.598083
v 47.720203 6.382622 -186.302795
v 23.522552 5.816759 -192.684753
v 26.707336 5.816759 -205.976532
v 47.381313 5.816759 -186.968063
v 50.566097 5.816759 -200.259842
v 40.970821 5.816759 -202.558914
v 37.786041 5.816759 -189.267151
v 23.522552 6.037214 -192.684753
v 26.707336 6.037214 -205.976532
v 40.970821 6.037214 -202.558914
v 50.566097 6.037214 -200.259842
v 47.381313 6.037214 -186.968063
v 37.786041 6.037214 -189.267151
vn -0.9725 -0.0000 -0.2330
vn -0.8991 -0.0000 -0.4377
vn -0.0000 -1.0000 -0.0000
vn -0.2330 -0.0000 0.9725
vn -0.0000 1.0000 -0.0000
vn 0.2330 -0.0000 -0.9725
vn 0.9725 -0.0000 0.2330
vn -0.9999 -0.0000 0.0114
vt 0.375000 0.000000
vt 0.625000 0.000000
vt 0.625000 0.250000
vt 0.375000 0.250000
vt 0.625000 0.850542
vt 0.375000 0.750000
vt 0.375000 0.500000
vt 0.375000 0.850542
vt 0.625000 1.000000
vt 0.375000 1.000000
vt 0.274458 0.500000
vt 0.274458 0.750000
vt 0.725542 0.500000
vt 0.875000 0.500000
vt 0.875000 0.750000
vt 0.725542 0.750000
vt 0.625000 0.500000
vt 0.625000 0.750000
vt 0.125000 0.500000
vt 0.125000 0.750000
vt 0.625000 0.399458
vt 0.375000 0.399458
s 0
usemtl M_jurassic_brick
f 1/1/1 2/2/1 4/3/1 3/4/1
f 5/6/3 7/7/3 15/7/3 16/6/3
f 11/8/4 12/5/4 2/9/4 1/10/4
f 9/11/3 7/7/3 5/6/3 11/12/3
f 10/13/5 4/14/5 2/15/5 12/16/5
f 8/17/5 10/13/5 12/16/5 6/18/5
f 3/19/3 9/11/3 11/12/3 1/20/3
f 3/4/6 4/3/6 10/21/6 9/22/6
f 7/7/3 9/11/3 19/11/3 15/7/3
f 11/12/3 5/6/3 16/6/3 18/12/3
f 33/13/3 34/16/3 29/15/3 30/14/3
f 32/17/3 31/18/3 34/16/3 33/13/3
usemtl M_jurassic_roof
f 37/13/5 36/14/5 35/15/5 40/16/5
f 38/17/5 37/13/5 40/16/5 39/18/5
usemtl M_jurassic_white
f 12/5/2 20/5/2 23/5/2 24/5/2
f 12/5/2 11/8/2 18/8/2 20/5/2
f 19/22/6 13/21/6 14/17/6 15/7/6
f 15/7/7 14/17/7 17/18/7 16/6/7
f 16/6/4 17/18/4 20/5/4 18/8/4
f 9/22/8 10/21/8 13/21/8 19/22/8
f 8/17/1 6/18/1 25/18/1 22/17/1
f 17/18/7 14/17/7 27/17/7 28/18/7
f 21/13/5 22/17/5 27/17/5 26/13/5
f 22/17/5 25/18/5 28/18/5 27/17/5
f 25/18/5 24/16/5 23/16/5 28/18/5
f 6/18/6 12/16/6 24/16/6 25/18/6
f 13/21/8 10/21/8 21/21/8 26/21/8
f 14/17/6 13/21/6 26/21/6 27/17/6
f 20/5/4 17/18/4 28/18/4 23/5/4
f 10/13/4 8/17/4 22/17/4 21/13/4
f 34/16/4 31/18/4 39/18/4 40/16/4
f 29/15/4 34/16/4 40/16/4 35/15/4
f 32/17/6 33/13/6 37/13/6 38/17/6
f 33/13/6 30/14/6 36/14/6 37/13/6
f 31/18/7 32/17/7 38/17/7 39/18/7
f 30/14/1 29/15/1 35/15/1 36/14/1
o Cube.001
v 37.470078 0.006313 -201.645645
v 37.470078 2.874603 -201.645645
v 37.910168 0.006313 -203.596634
v 37.910168 2.874603 -203.596634
v 39.421055 0.006313 -201.205551
v 39.421055 2.874603 -201.205551
v 39.861145 0.006313 -203.156540
v 39.861145 2.874603 -203.156540
v 33.904564 0.006313 -202.500214
v 33.904564 2.874603 -202.500214
v 34.344654 0.006313 -204.451187
v 34.344654 2.874603 -204.451187
v 35.855541 0.006313 -202.060120
v 35.855541 2.874603 -202.060120
v 36.295635 0.006313 -204.011093
v 36.295635 2.874603 -204.011093
v 30.456913 0.006313 -203.295807
v 30.456913 2.874603 -203.295807
v 30.897005 0.006313 -205.246796
v 30.897005 2.874603 -205.246796
v 32.407894 0.006313 -202.855713
v 32.407894 2.874603 -202.855713
v 32.847984 0.006313 -204.806702
v 32.847984 2.874603 -204.806702
vn -0.9755 -0.0000 -0.2200
vn 0.2200 -0.0000 -0.9755
vn 0.9755 -0.0000 0.2200
vn -0.2200 -0.0000 0.9755
vn -0.0000 -1.0000 -0.0000
vn -0.0000 1.0000 -0.0000
vt 0.375000 0.000000
vt 0.625000 0.000000
vt 0.625000 0.250000
vt 0.375000 0.250000
vt 0.625000 0.500000
vt 0.375000 0.500000
vt 0.625000 0.750000
vt 0.375000 0.750000
vt 0.625000 1.000000
vt 0.375000 1.000000
vt 0.125000 0.500000
vt 0.125000 0.750000
vt 0.875000 0.500000
vt 0.875000 0.750000
s 0
usemtl M_jurassic_metal
f 41/23/9 42/24/9 44/25/9 43/26/9
f 43/26/10 44/25/10 48/27/10 47/28/10
f 47/28/11 48/27/11 46/29/11 45/30/11
f 45/30/12 46/29/12 42/31/12 41/32/12
f 43/33/13 47/28/13 45/30/13 41/34/13
f 48/27/14 44/35/14 42/36/14 46/29/14
f 49/23/9 50/24/9 52/25/9 51/26/9
f 51/26/10 52/25/10 56/27/10 55/28/10
f 55/28/11 56/27/11 54/29/11 53/30/11
f 53/30/12 54/29/12 50/31/12 49/32/12
f 51/33/13 55/28/13 53/30/13 49/34/13
f 56/27/14 52/35/14 50/36/14 54/29/14
f 57/23/9 58/24/9 60/25/9 59/26/9
f 59/26/10 60/25/10 64/27/10 63/28/10
f 63/28/11 64/27/11 62/29/11 61/30/11
f 61/30/12 62/29/12 58/31/12 57/32/12
f 59/33/13 63/28/13 61/30/13 57/34/13
f 64/27/14 60/35/14 58/36/14 62/29/14
