# Blender 4.0.2
# www.blender.org
mtllib BU_trees_published_004.mtl
o Tree_004_GEO
v 0.926150 3.732147 -0.142877
v 1.436517 4.240284 0.227922
v 0.731211 4.240283 0.457094
v 0.295302 4.240287 -0.142877
v 0.731211 4.240283 -0.742849
v 1.436517 4.240284 -0.513677
v 1.121089 4.954990 0.457094
v 0.415782 4.954989 0.227922
v 0.415782 4.954989 -0.513677
v 1.121089 4.954990 -0.742849
v 1.556997 4.954986 -0.142877
v 0.926150 5.354231 -0.142877
v 0.811568 3.878050 0.209774
v 1.226134 3.878051 0.075071
v 1.111554 4.172310 0.427727
v 1.526120 4.172311 -0.142877
v 1.226134 3.878051 -0.360826
v 0.555347 3.878053 -0.142877
v 0.440763 4.172311 0.209775
v 0.811568 3.878050 -0.495529
v 0.440763 4.172311 -0.495530
v 1.111554 4.172310 -0.713481
v 1.596940 4.609921 0.075072
v 1.596940 4.609921 -0.360827
v 0.926150 4.609921 0.562433
v 1.340721 4.609921 0.427730
v 0.255359 4.609921 0.075072
v 0.511579 4.609921 0.427730
v 0.511579 4.609921 -0.713485
v 0.255359 4.609921 -0.360827
v 1.340721 4.609921 -0.713485
v 0.926150 4.609921 -0.848187
v 1.411537 5.013391 0.209775
v 0.740746 5.013392 0.427727
v 0.326180 5.013390 -0.142877
v 0.740746 5.013392 -0.713481
v 1.411537 5.013391 -0.495530
v 1.040731 5.248794 0.209774
v 1.296952 5.248792 -0.142877
v 0.626166 5.248794 0.075071
v 0.626166 5.248794 -0.360826
v 1.040731 5.248794 -0.495529
v 1.539005 3.636790 0.148335
v 2.099822 4.075286 0.514862
v 1.407623 4.158476 0.741393
v 0.979816 4.209895 0.148335
v 1.407623 4.158476 -0.444724
v 2.099822 4.075286 -0.218192
v 1.874555 4.813914 0.741393
v 1.182356 4.897104 0.514862
v 1.182356 4.897104 -0.218192
v 1.874555 4.813914 -0.444724
v 2.302362 4.762496 0.148335
v 1.730329 5.228729 0.148335
v 1.443762 3.793496 0.496923
v 1.850624 3.744599 0.363772
v 1.772881 4.046905 0.712364
v 2.179742 3.998008 0.148335
v 1.850624 3.744599 -0.067103
v 1.192303 3.823721 0.148335
v 1.114556 4.126025 0.496924
v 1.443762 3.793496 -0.200254
v 1.114556 4.126025 -0.200255
v 1.772880 4.046905 -0.415695
v 2.300863 4.419133 0.363773
v 2.300863 4.419133 -0.067104
v 1.642538 4.498252 0.845518
v 2.049405 4.449354 0.712368
v 0.984214 4.577372 0.363773
v 1.235672 4.547151 0.712368
v 1.235672 4.547151 -0.415698
v 0.984214 4.577372 -0.067104
v 2.049405 4.449354 -0.415698
v 1.642538 4.498252 -0.548849
v 2.166494 4.836972 0.496924
v 1.508169 4.916092 0.712364
v 1.101307 4.964989 0.148335
v 1.508169 4.916092 -0.415695
v 2.166494 4.836972 -0.200255
v 1.830345 5.111736 0.496923
v 2.081804 5.081514 0.148335
v 1.423483 5.160634 0.363772
v 1.423484 5.160634 -0.067103
v 1.830345 5.111736 -0.200254
v -0.803591 2.739935 0.274707
v 0.277041 3.584869 0.980963
v -1.056749 3.745166 1.417464
v -1.881085 3.844244 0.274707
v -1.056749 3.745166 -0.868051
v 0.277041 3.584869 -0.431550
v -0.157023 5.008122 1.417464
v -1.490813 5.168419 0.980963
v -1.490813 5.168419 -0.431550
v -0.157023 5.008122 -0.868051
v 0.667313 4.909044 0.274707
v -0.434930 5.807423 0.274707
v -0.987113 3.041889 0.946398
v -0.203136 2.947671 0.689831
v -0.352939 3.530179 1.361529
v 0.431039 3.435960 0.274707
v -0.203136 2.947671 -0.140418
v -1.471646 3.100130 0.274707
v -1.621457 3.682636 0.946400
v -0.987113 3.041889 -0.396984
v -1.621457 3.682636 -0.396986
v -0.352939 3.530181 -0.812115
v 0.664424 4.247422 0.689832
v 0.664424 4.247422 -0.140419
v -0.604094 4.399877 1.618101
v 0.179893 4.305655 1.361536
v -1.872611 4.552330 0.689833
v -1.388080 4.494098 1.361536
v -1.388080 4.494098 -0.812122
v -1.872611 4.552330 -0.140419
v 0.179893 4.305655 -0.812122
v -0.604094 4.399877 -1.068688
v 0.405509 5.052552 0.946400
v -0.863008 5.205007 1.361529
v -1.646986 5.299226 0.274707
v -0.863008 5.205007 -0.812115
v 0.405509 5.052552 -0.396986
v -0.242211 5.581991 0.946398
v 0.242323 5.523756 0.274707
v -1.026188 5.676212 0.689831
v -1.026188 5.676212 -0.140417
v -0.242211 5.581991 -0.396984
v -0.285319 0.000000 0.285319
v 0.285319 0.000000 0.285319
v -0.285319 0.000000 -0.285319
v 0.285319 0.000000 -0.285319
v -0.168818 1.181625 0.192788
v 0.159398 1.181625 0.138963
v -0.222643 1.181625 -0.135427
v 0.105573 1.181625 -0.189253
v -0.107482 2.508309 0.067627
v 0.111746 2.428713 0.102905
v -0.074539 2.495671 -0.165603
v 0.144689 2.416075 -0.130324
v 0.470231 3.497162 -0.002799
v 0.532939 3.440005 0.007489
v 0.476829 3.489130 -0.087634
v 0.539536 3.431973 -0.077346
v 1.012101 4.050761 -0.036528
v 1.040645 4.024742 -0.031845
v 1.015104 4.047104 -0.075145
v 1.043649 4.021086 -0.070462
v -0.032141 2.466775 -0.113156
v -0.146383 2.413334 -0.108497
v -0.021452 2.454841 0.012033
v -0.135694 2.401399 0.016693
v -0.745634 3.934053 0.121108
v -0.799782 3.908724 0.123317
v -0.740568 3.928397 0.180445
v -0.794716 3.903067 0.182653
v -0.580141 3.070594 0.144403
v -0.588019 3.079390 0.052140
v -0.503824 3.118776 0.048706
v -0.495946 3.109980 0.140969
v -0.086640 2.057419 -0.007449
v 0.048210 1.930568 0.106074
v 0.001584 1.985639 -0.192455
v 0.136434 1.858787 -0.078932
v 1.872594 4.106900 0.064626
v 1.936509 4.046775 0.118432
v 1.914410 4.072877 -0.023062
v 1.978325 4.012754 0.030745
v 1.213487 2.744881 0.038863
v 1.148466 2.797782 0.175210
v 1.049084 2.891270 0.091545
v 1.114104 2.838369 -0.044802
vn 0.1352 -0.8993 0.4160
vn 0.7692 -0.5692 0.2902
vn -0.3539 -0.8993 0.2571
vn -0.3539 -0.8993 -0.2571
vn 0.1352 -0.8993 -0.4160
vn 0.9184 -0.2852 0.2742
vn 0.0230 -0.2852 0.9582
vn -0.9042 -0.2852 0.3180
vn -0.5818 -0.2852 -0.7617
vn 0.5446 -0.2852 -0.7887
vn 0.8043 -0.1074 0.5844
vn -0.3072 -0.1074 0.9456
vn -0.9942 -0.1074 -0.0000
vn -0.3072 -0.1074 -0.9456
vn 0.8043 -0.1074 -0.5844
vn 0.4127 0.6500 0.6381
vn -0.4794 0.6500 0.5896
vn -0.7089 0.6500 -0.2737
vn 0.0412 0.6500 -0.7588
vn 0.7344 0.6500 -0.1953
vn 0.2683 0.9434 -0.1949
vn 0.4994 0.7867 -0.3629
vn 0.4127 0.6500 -0.6381
vn -0.1025 0.9434 -0.3154
vn -0.1908 0.7867 -0.5871
vn -0.4794 0.6500 -0.5896
vn -0.3316 0.9434 -0.0000
vn -0.6173 0.7867 -0.0000
vn -0.7089 0.6500 0.2737
vn -0.1025 0.9434 0.3154
vn -0.1908 0.7867 0.5871
vn 0.0412 0.6500 0.7588
vn 0.2683 0.9434 0.1949
vn 0.4994 0.7867 0.3629
vn 0.7344 0.6500 0.1953
vn 0.8970 0.3056 -0.3194
vn 0.7968 0.1729 -0.5789
vn 0.5809 0.3056 -0.7544
vn -0.0266 0.3056 -0.9518
vn -0.3044 0.1729 -0.9367
vn -0.5380 0.3056 -0.7856
vn -0.9134 0.3056 -0.2689
vn -0.9849 0.1729 -0.0000
vn -0.9134 0.3056 0.2689
vn -0.5380 0.3056 0.7856
vn -0.3044 0.1729 0.9367
vn -0.0266 0.3056 0.9518
vn 0.5809 0.3056 0.7544
vn 0.7968 0.1729 0.5789
vn 0.8970 0.3056 0.3194
vn 0.3070 0.1150 -0.9447
vn 0.3050 -0.1598 -0.9388
vn 0.0230 -0.2852 -0.9582
vn -0.8037 0.1150 -0.5839
vn -0.7986 -0.1598 -0.5802
vn -0.9042 -0.2852 -0.3180
vn -0.8037 0.1150 0.5839
vn -0.7986 -0.1598 0.5802
vn -0.5818 -0.2852 0.7617
vn 0.3070 0.1150 0.9447
vn 0.3050 -0.1598 0.9388
vn 0.5446 -0.2852 0.7887
vn 0.9934 0.1150 -0.0000
vn 0.9872 -0.1598 -0.0000
vn 0.9184 -0.2852 -0.2742
vn 0.5137 -0.5692 -0.6419
vn 0.2164 -0.7139 -0.6660
vn -0.0383 -0.5692 -0.8213
vn -0.4517 -0.5692 -0.6870
vn -0.5665 -0.7139 -0.4116
vn -0.7929 -0.5692 -0.2173
vn -0.7929 -0.5692 0.2173
vn -0.5665 -0.7139 0.4116
vn -0.4517 -0.5692 0.6870
vn 0.7692 -0.5692 -0.2902
vn 0.7003 -0.7139 -0.0000
vn 0.4374 -0.8993 -0.0000
vn -0.0383 -0.5692 0.8213
vn 0.2164 -0.7139 0.6660
vn 0.5137 -0.5692 0.6419
vn 0.0269 -0.9090 0.4160
vn 0.6958 -0.6570 0.2902
vn -0.4586 -0.8506 0.2571
vn -0.4586 -0.8506 -0.2571
vn 0.0269 -0.9090 -0.4160
vn 0.8778 -0.3927 0.2742
vn -0.0112 -0.2859 0.9582
vn -0.9318 -0.1753 0.3180
vn -0.6117 -0.2137 -0.7617
vn 0.5067 -0.3481 -0.7887
vn 0.7858 -0.2026 0.5844
vn -0.3179 -0.0700 0.9456
vn -0.9999 0.0120 -0.0000
vn -0.3179 -0.0700 -0.9456
vn 0.7858 -0.2026 -0.5844
vn 0.4873 0.5961 0.6381
vn -0.3984 0.7026 0.5896
vn -0.6263 0.7300 -0.2737
vn 0.1185 0.6405 -0.7588
vn 0.8067 0.5577 -0.1953
vn 0.3789 0.9047 -0.1949
vn 0.5897 0.7215 -0.3629
vn 0.4873 0.5961 -0.6381
vn 0.0108 0.9489 -0.3154
vn -0.0955 0.8038 -0.5871
vn -0.3984 0.7026 -0.5896
vn -0.2166 0.9762 -0.0000
vn -0.5191 0.8547 -0.0000
vn -0.6263 0.7300 0.2737
vn 0.0108 0.9489 0.3154
vn -0.0955 0.8038 0.5871
vn 0.1185 0.6405 0.7588
vn 0.3789 0.9047 0.1949
vn 0.5897 0.7215 0.3629
vn 0.8067 0.5577 0.1953
vn 0.9271 0.1963 -0.3194
vn 0.8118 0.0766 -0.5789
vn 0.6133 0.2341 -0.7544
vn 0.0101 0.3066 -0.9518
vn -0.2816 0.2080 -0.9367
vn -0.4977 0.3676 -0.7856
vn -0.8704 0.4124 -0.2689
vn -0.9573 0.2892 -0.0000
vn -0.8704 0.4124 0.2689
vn -0.4977 0.3676 0.7856
vn -0.2816 0.2080 0.9367
vn 0.0101 0.3066 0.9518
vn 0.6133 0.2341 0.7544
vn 0.8118 0.0766 0.5789
vn 0.9271 0.1963 0.3194
vn 0.3185 0.0775 -0.9447
vn 0.2838 -0.1950 -0.9388
vn -0.0112 -0.2859 -0.9582
vn -0.7842 0.2101 -0.5839
vn -0.8120 -0.0633 -0.5802
vn -0.9318 -0.1753 -0.3180
vn -0.7842 0.2101 0.5839
vn -0.8120 -0.0633 0.5802
vn -0.6117 -0.2137 0.7617
vn 0.3185 0.0775 0.9447
vn 0.2838 -0.1950 0.9388
vn 0.5067 -0.3481 0.7887
vn 1.0000 -0.0044 -0.0000
vn 0.9610 -0.2764 -0.0000
vn 0.8778 -0.3927 -0.2742
vn 0.4421 -0.6265 -0.6419
vn 0.1297 -0.7346 -0.6660
vn -0.1060 -0.5606 -0.8213
vn -0.5164 -0.5113 -0.6870
vn -0.6477 -0.6412 -0.4116
vn -0.8552 -0.4706 -0.2173
vn -0.8552 -0.4706 0.2173
vn -0.6477 -0.6412 0.4116
vn -0.5164 -0.5113 0.6870
vn 0.6958 -0.6570 -0.2902
vn 0.6101 -0.7923 -0.0000
vn 0.3270 -0.9450 -0.0000
vn -0.1060 -0.5606 0.8213
vn 0.1297 -0.7346 0.6660
vn 0.4422 -0.6265 0.6419
vn -0.0000 -1.0000 -0.0000
vn -0.0319 0.0136 -0.9994
vn -0.0595 0.1004 -0.9932
vn 0.0595 0.1006 0.9931
vn 0.9902 0.1268 -0.0593
vn -0.9955 0.0740 0.0596
vn 0.9198 -0.3674 0.1382
vn 0.0428 0.0622 0.9971
vn 0.9993 0.0038 -0.0373
vn -0.9961 0.0811 0.0352
vn -0.7131 0.6906 -0.1208
vn -0.8603 0.4905 -0.1388
vn 0.1554 -0.0088 -0.9878
vn -0.0964 0.1300 0.9868
vn 0.6751 0.7375 -0.0173
vn 0.0974 -0.0718 -0.9927
vn -0.0569 0.1161 0.9916
vn 0.7536 -0.6463 0.1198
vn 0.4165 -0.9010 -0.1215
vn -0.4165 0.9010 0.1215
vn -0.9660 -0.2517 0.0585
vn 0.9560 0.2884 -0.0541
vn 0.0555 -0.0316 0.9980
vn -0.0719 0.0670 -0.9952
vn -0.1149 0.1602 -0.9804
vn 0.0980 -0.1234 0.9875
vn 0.8086 0.5882 -0.0130
vn -0.8313 -0.5555 0.0180
vn -0.6704 -0.7413 -0.0321
vn 0.6704 0.7413 0.0321
vn 0.7330 -0.4388 0.5198
vn -0.7116 0.4705 -0.5219
vn 0.4520 -0.2781 -0.8476
vn -0.4265 0.3078 0.8505
vn -0.3561 0.3839 0.8520
vn 0.3846 -0.3541 -0.8525
vn -0.4810 0.7153 -0.5069
vn 0.5117 -0.6901 0.5118
vt 0.181819 0.000000
vt 0.227273 0.078731
vt 0.136365 0.078731
vt 0.272728 0.157461
vt 0.318182 0.078731
vt 0.363637 0.157461
vt 0.909091 0.000000
vt 0.954545 0.078731
vt 0.863636 0.078731
vt 0.727273 0.000000
vt 0.772727 0.078731
vt 0.681818 0.078731
vt 0.545455 0.000000
vt 0.590909 0.078731
vt 0.500000 0.078731
vt 0.318182 0.236191
vt 0.090910 0.157461
vt 0.181819 0.157461
vt 0.136365 0.236191
vt 0.818182 0.157461
vt 0.909091 0.157461
vt 0.863636 0.236191
vt 0.636364 0.157461
vt 0.727273 0.157461
vt 0.681818 0.236191
vt 0.454546 0.157461
vt 0.545455 0.157461
vt 0.500000 0.236191
vt 0.227273 0.236191
vt 0.045455 0.236191
vt 0.772727 0.236191
vt 0.590909 0.236191
vt 0.409092 0.236191
vt 0.181819 0.314921
vt 0.272728 0.314921
vt 0.227273 0.393651
vt 0.000000 0.314921
vt 0.090910 0.314921
vt 0.045455 0.393651
vt 0.727273 0.314921
vt 0.818182 0.314921
vt 0.772727 0.393651
vt 0.545455 0.314921
vt 0.636364 0.314921
vt 0.590909 0.393651
vt 0.363637 0.314921
vt 0.454546 0.314921
vt 0.409092 0.393651
vt 0.500000 0.393651
vt 0.454546 0.472382
vt 0.681818 0.393651
vt 0.636364 0.472382
vt 0.863636 0.393651
vt 0.818182 0.472382
vt 0.909091 0.314921
vt 0.136365 0.393651
vt 0.090910 0.472382
vt 0.318182 0.393651
vt 0.272728 0.472382
vt 0.954545 0.236191
vt 1.000000 0.157461
vt 0.409092 0.078731
vt 0.363637 0.000000
vt 0.000000 0.000000
vt 0.000000 1.000000
vt 1.000000 1.000000
vt 1.000000 0.000000
vt 0.000000 0.000001
vt 0.999998 0.000000
vt -0.000003 1.000000
vt 0.999999 0.000000
vt -0.000001 1.000000
vt 0.000000 0.000000
s 0
usemtl M_Tree_green
f 1/1/1 14/2/1 13/3/1
f 2/4/2 14/5/2 16/6/2
f 1/7/3 13/8/3 18/9/3
f 1/10/4 18/11/4 20/12/4
f 1/13/5 20/14/5 17/15/5
f 2/4/6 16/6/6 23/16/6
f 3/17/7 15/18/7 25/19/7
f 4/20/8 19/21/8 27/22/8
f 5/23/9 21/24/9 29/25/9
f 6/26/10 22/27/10 31/28/10
f 2/4/11 23/16/11 26/29/11
f 3/17/12 25/19/12 28/30/12
f 4/20/13 27/22/13 30/31/13
f 5/23/14 29/25/14 32/32/14
f 6/26/15 31/28/15 24/33/15
f 7/34/16 33/35/16 38/36/16
f 8/37/17 34/38/17 40/39/17
f 9/40/18 35/41/18 41/42/18
f 10/43/19 36/44/19 42/45/19
f 11/46/20 37/47/20 39/48/20
f 39/48/21 42/49/21 12/50/21
f 39/48/22 37/47/22 42/49/22
f 37/47/23 10/43/23 42/49/23
f 42/45/24 41/51/24 12/52/24
f 42/45/25 36/44/25 41/51/25
f 36/44/26 9/40/26 41/51/26
f 41/42/27 40/53/27 12/54/27
f 41/42/28 35/41/28 40/53/28
f 35/41/29 8/55/29 40/53/29
f 40/39/30 38/56/30 12/57/30
f 40/39/31 34/38/31 38/56/31
f 34/38/32 7/34/32 38/56/32
f 38/36/33 39/58/33 12/59/33
f 38/36/34 33/35/34 39/58/34
f 33/35/35 11/46/35 39/58/35
f 24/33/36 37/47/36 11/46/36
f 24/33/37 31/28/37 37/47/37
f 31/28/38 10/43/38 37/47/38
f 32/32/39 36/44/39 10/43/39
f 32/32/40 29/25/40 36/44/40
f 29/25/41 9/40/41 36/44/41
f 30/31/42 35/41/42 9/40/42
f 30/31/43 27/22/43 35/41/43
f 27/22/44 8/55/44 35/41/44
f 28/30/45 34/38/45 8/37/45
f 28/30/46 25/19/46 34/38/46
f 25/19/47 7/34/47 34/38/47
f 26/29/48 33/35/48 7/34/48
f 26/29/49 23/16/49 33/35/49
f 23/16/50 11/46/50 33/35/50
f 31/28/51 32/32/51 10/43/51
f 31/28/52 22/27/52 32/32/52
f 22/27/53 5/23/53 32/32/53
f 29/25/54 30/31/54 9/40/54
f 29/25/55 21/24/55 30/31/55
f 21/24/56 4/20/56 30/31/56
f 27/22/57 28/60/57 8/55/57
f 27/22/58 19/21/58 28/60/58
f 19/21/59 3/61/59 28/60/59
f 25/19/60 26/29/60 7/34/60
f 25/19/61 15/18/61 26/29/61
f 15/18/62 2/4/62 26/29/62
f 23/16/63 24/33/63 11/46/63
f 23/16/64 16/6/64 24/33/64
f 16/6/65 6/26/65 24/33/65
f 17/15/66 22/27/66 6/26/66
f 17/15/67 20/14/67 22/27/67
f 20/14/68 5/23/68 22/27/68
f 20/12/69 21/24/69 5/23/69
f 20/12/70 18/11/70 21/24/70
f 18/11/71 4/20/71 21/24/71
f 18/9/72 19/21/72 4/20/72
f 18/9/73 13/8/73 19/21/73
f 13/8/74 3/61/74 19/21/74
f 16/6/75 17/62/75 6/26/75
f 16/6/76 14/5/76 17/62/76
f 14/5/77 1/63/77 17/62/77
f 13/3/78 15/18/78 3/17/78
f 13/3/79 14/2/79 15/18/79
f 14/2/80 2/4/80 15/18/80
f 43/1/81 56/2/81 55/3/81
f 44/4/82 56/5/82 58/6/82
f 43/7/83 55/8/83 60/9/83
f 43/10/84 60/11/84 62/12/84
f 43/13/85 62/14/85 59/15/85
f 44/4/86 58/6/86 65/16/86
f 45/17/87 57/18/87 67/19/87
f 46/20/88 61/21/88 69/22/88
f 47/23/89 63/24/89 71/25/89
f 48/26/90 64/27/90 73/28/90
f 44/4/91 65/16/91 68/29/91
f 45/17/92 67/19/92 70/30/92
f 46/20/93 69/22/93 72/31/93
f 47/23/94 71/25/94 74/32/94
f 48/26/95 73/28/95 66/33/95
f 49/34/96 75/35/96 80/36/96
f 50/37/97 76/38/97 82/39/97
f 51/40/98 77/41/98 83/42/98
f 52/43/99 78/44/99 84/45/99
f 53/46/100 79/47/100 81/48/100
f 81/48/101 84/49/101 54/50/101
f 81/48/102 79/47/102 84/49/102
f 79/47/103 52/43/103 84/49/103
f 84/45/104 83/51/104 54/52/104
f 84/45/105 78/44/105 83/51/105
f 78/44/106 51/40/106 83/51/106
f 83/42/107 82/53/107 54/54/107
f 83/42/108 77/41/108 82/53/108
f 77/41/109 50/55/109 82/53/109
f 82/39/110 80/56/110 54/57/110
f 82/39/111 76/38/111 80/56/111
f 76/38/112 49/34/112 80/56/112
f 80/36/113 81/58/113 54/59/113
f 80/36/114 75/35/114 81/58/114
f 75/35/115 53/46/115 81/58/115
f 66/33/116 79/47/116 53/46/116
f 66/33/117 73/28/117 79/47/117
f 73/28/118 52/43/118 79/47/118
f 74/32/119 78/44/119 52/43/119
f 74/32/120 71/25/120 78/44/120
f 71/25/121 51/40/121 78/44/121
f 72/31/122 77/41/122 51/40/122
f 72/31/123 69/22/123 77/41/123
f 69/22/124 50/55/124 77/41/124
f 70/30/125 76/38/125 50/37/125
f 70/30/126 67/19/126 76/38/126
f 67/19/127 49/34/127 76/38/127
f 68/29/128 75/35/128 49/34/128
f 68/29/129 65/16/129 75/35/129
f 65/16/130 53/46/130 75/35/130
f 73/28/131 74/32/131 52/43/131
f 73/28/132 64/27/132 74/32/132
f 64/27/133 47/23/133 74/32/133
f 71/25/134 72/31/134 51/40/134
f 71/25/135 63/24/135 72/31/135
f 63/24/136 46/20/136 72/31/136
f 69/22/137 70/60/137 50/55/137
f 69/22/138 61/21/138 70/60/138
f 61/21/139 45/61/139 70/60/139
f 67/19/140 68/29/140 49/34/140
f 67/19/141 57/18/141 68/29/141
f 57/18/142 44/4/142 68/29/142
f 65/16/143 66/33/143 53/46/143
f 65/16/144 58/6/144 66/33/144
f 58/6/145 48/26/145 66/33/145
f 59/15/146 64/27/146 48/26/146
f 59/15/147 62/14/147 64/27/147
f 62/14/148 47/23/148 64/27/148
f 62/12/149 63/24/149 47/23/149
f 62/12/150 60/11/150 63/24/150
f 60/11/151 46/20/151 63/24/151
f 60/9/152 61/21/152 46/20/152
f 60/9/153 55/8/153 61/21/153
f 55/8/154 45/61/154 61/21/154
f 58/6/155 59/62/155 48/26/155
f 58/6/156 56/5/156 59/62/156
f 56/5/157 43/63/157 59/62/157
f 55/3/158 57/18/158 45/17/158
f 55/3/159 56/2/159 57/18/159
f 56/2/160 44/4/160 57/18/160
f 85/1/81 98/2/81 97/3/81
f 86/4/82 98/5/82 100/6/82
f 85/7/83 97/8/83 102/9/83
f 85/10/84 102/11/84 104/12/84
f 85/13/85 104/14/85 101/15/85
f 86/4/86 100/6/86 107/16/86
f 87/17/87 99/18/87 109/19/87
f 88/20/88 103/21/88 111/22/88
f 89/23/89 105/24/89 113/25/89
f 90/26/90 106/27/90 115/28/90
f 86/4/91 107/16/91 110/29/91
f 87/17/92 109/19/92 112/30/92
f 88/20/93 111/22/93 114/31/93
f 89/23/94 113/25/94 116/32/94
f 90/26/95 115/28/95 108/33/95
f 91/34/96 117/35/96 122/36/96
f 92/37/97 118/38/97 124/39/97
f 93/40/98 119/41/98 125/42/98
f 94/43/99 120/44/99 126/45/99
f 95/46/100 121/47/100 123/48/100
f 123/48/101 126/49/101 96/50/101
f 123/48/102 121/47/102 126/49/102
f 121/47/103 94/43/103 126/49/103
f 126/45/104 125/51/104 96/52/104
f 126/45/105 120/44/105 125/51/105
f 120/44/106 93/40/106 125/51/106
f 125/42/107 124/53/107 96/54/107
f 125/42/108 119/41/108 124/53/108
f 119/41/109 92/55/109 124/53/109
f 124/39/110 122/56/110 96/57/110
f 124/39/111 118/38/111 122/56/111
f 118/38/112 91/34/112 122/56/112
f 122/36/113 123/58/113 96/59/113
f 122/36/114 117/35/114 123/58/114
f 117/35/115 95/46/115 123/58/115
f 108/33/116 121/47/116 95/46/116
f 108/33/117 115/28/117 121/47/117
f 115/28/118 94/43/118 121/47/118
f 116/32/119 120/44/119 94/43/119
f 116/32/120 113/25/120 120/44/120
f 113/25/121 93/40/121 120/44/121
f 114/31/122 119/41/122 93/40/122
f 114/31/123 111/22/123 119/41/123
f 111/22/124 92/55/124 119/41/124
f 112/30/125 118/38/125 92/37/125
f 112/30/126 109/19/126 118/38/126
f 109/19/127 91/34/127 118/38/127
f 110/29/128 117/35/128 91/34/128
f 110/29/129 107/16/129 117/35/129
f 107/16/130 95/46/130 117/35/130
f 115/28/131 116/32/131 94/43/131
f 115/28/132 106/27/132 116/32/132
f 106/27/133 89/23/133 116/32/133
f 113/25/134 114/31/134 93/40/134
f 113/25/135 105/24/135 114/31/135
f 105/24/136 88/20/136 114/31/136
f 111/22/137 112/60/137 92/55/137
f 111/22/138 103/21/138 112/60/138
f 103/21/139 87/61/139 112/60/139
f 109/19/140 110/29/140 91/34/140
f 109/19/141 99/18/141 110/29/141
f 99/18/142 86/4/142 110/29/142
f 107/16/143 108/33/143 95/46/143
f 107/16/144 100/6/144 108/33/144
f 100/6/145 90/26/145 108/33/145
f 101/15/146 106/27/146 90/26/146
f 101/15/147 104/14/147 106/27/147
f 104/14/148 89/23/148 106/27/148
f 104/12/149 105/24/149 89/23/149
f 104/12/150 102/11/150 105/24/150
f 102/11/151 88/20/151 105/24/151
f 102/9/152 103/21/152 88/20/152
f 102/9/153 97/8/153 103/21/153
f 97/8/154 87/61/154 103/21/154
f 100/6/155 101/62/155 90/26/155
f 100/6/156 98/5/156 101/62/156
f 98/5/157 85/63/157 101/62/157
f 97/3/158 99/18/158 87/17/158
f 97/3/159 98/2/159 99/18/159
f 98/2/160 86/4/160 99/18/160
usemtl M_Tree_brown
f 127/64/161 129/65/161 130/66/161 128/67/161
f 134/66/162 133/65/162 137/65/162 138/66/162
f 130/66/163 129/65/163 133/65/163 134/66/163
f 127/64/164 128/67/164 132/67/164 131/64/164
f 128/67/165 130/66/165 134/66/165 132/67/165
f 129/65/166 127/64/166 131/64/166 133/65/166
f 136/67/167 138/66/167 142/66/167 140/67/167
f 131/64/168 132/67/168 136/67/168 135/64/168
f 132/67/169 134/66/169 138/66/169 136/67/169
f 133/65/170 131/64/170 135/64/170 137/65/170
f 141/65/171 139/64/171 143/64/171 145/65/171
f 137/65/172 135/64/172 139/64/172 141/65/172
f 138/66/173 137/65/173 141/65/173 142/66/173
f 135/64/174 136/67/174 140/67/174 139/64/174
f 143/64/175 144/67/175 146/66/175 145/65/175
f 142/66/176 141/65/176 145/65/176 146/66/176
f 139/64/177 140/67/177 144/67/177 143/64/177
f 140/67/178 142/66/178 146/66/178 144/67/178
f 147/64/179 149/65/179 150/66/179 148/67/179
f 151/68/180 152/69/180 154/66/180 153/70/180
f 156/71/181 155/66/181 154/66/181 152/69/181
f 158/72/182 157/73/182 151/68/182 153/70/182
f 155/66/183 158/72/183 153/70/183 154/66/183
f 157/73/184 156/71/184 152/69/184 151/68/184
f 147/64/185 148/67/185 156/71/185 157/73/185
f 150/66/186 149/65/186 158/72/186 155/66/186
f 149/65/187 147/64/187 157/73/187 158/72/187
f 148/67/188 150/66/188 155/66/188 156/71/188
f 159/64/189 161/65/189 162/66/189 160/67/189
f 163/68/190 164/69/190 166/66/190 165/70/190
f 168/71/191 167/66/191 166/66/191 164/69/191
f 170/72/192 169/73/192 163/68/192 165/70/192
f 167/66/193 170/72/193 165/70/193 166/66/193
f 169/73/194 168/71/194 164/69/194 163/68/194
f 159/64/195 160/67/195 168/71/195 169/73/195
f 162/66/196 161/65/196 170/72/196 167/66/196
f 161/65/197 159/64/197 169/73/197 170/72/197
f 160/67/198 162/66/198 167/66/198 168/71/198
