# Blender 4.0.2
# www.blender.org
mtllib car park.mtl
o Plane
v -5.970764 0.000000 5.970764
v -5.970764 0.000000 -5.970764
v -5.970764 0.000000 0.000000
v -5.970764 0.000000 -2.985382
v -5.970764 0.000000 2.985382
v -5.970764 0.000000 4.478073
v -5.970764 0.000000 1.521100
v -5.970764 0.000000 -1.492691
v -5.970764 0.000000 -4.478073
v -5.970764 0.000000 3.731727
v -5.970764 0.000000 0.760550
v -5.970764 0.000000 -2.239036
v -5.970764 0.000000 -5.224418
v -5.970764 0.000000 5.224418
v -5.970764 0.000000 2.253241
v -5.970764 0.000000 -0.746345
v -5.970764 0.000000 -3.731727
v -5.970764 0.000000 5.597591
v -5.970764 0.000000 -5.597591
v -5.970764 0.134070 5.597591
v -5.970764 0.134070 5.970764
v -5.970764 0.127788 -5.970764
v -5.970764 0.127788 -5.597591
v -5.970764 0.000000 3.358555
v -5.970764 0.000000 0.380275
v -5.970764 0.127836 2.985382
v -5.970764 0.127836 3.358555
v -5.970764 0.114443 0.380275
v -5.970764 0.114443 0.760550
v -5.970764 0.000000 -1.865864
v -5.970764 0.104714 -2.239036
v -5.970764 0.104714 -1.865864
v 0.000000 0.000000 5.970764
v 0.000000 0.000000 -5.970764
v 0.000000 0.000000 0.000000
v 0.000000 0.000000 -2.985382
v 0.000000 0.000000 2.985382
v 0.000000 0.000000 4.478073
v 0.000000 0.000000 1.521100
v 0.000000 0.000000 -1.492691
v 0.000000 0.000000 -4.478073
v 0.000000 0.000000 3.731727
v 0.000000 0.000000 0.760550
v 0.000000 0.000000 -2.239036
v 0.000000 0.000000 -5.224418
v 0.000000 0.000000 5.224418
v 0.000000 0.000000 2.253241
v 0.000000 0.000000 -0.746345
v 0.000000 0.000000 -3.731727
v 0.000000 0.000000 5.597591
v 0.000000 0.000000 -5.597591
v 0.000000 0.134070 5.970764
v 0.000000 0.134070 5.597591
v 0.000000 0.127788 -5.970764
v 0.000000 0.127788 -5.597591
v 0.000000 0.000000 3.358555
v 0.000000 0.000000 0.380275
v 0.000000 0.127836 2.985382
v 0.000000 0.127836 3.358555
v 0.000000 0.114443 0.760550
v 0.000000 0.114443 0.380275
v 0.000000 0.000000 -1.865864
v 0.000000 0.104714 -2.239036
v 0.000000 0.104714 -1.865864
v 1.492691 0.000000 -5.970764
v 1.492691 0.000000 0.000000
v 1.492691 0.000000 -2.985382
v 1.492691 0.000000 2.985382
v 1.492691 0.000000 4.478073
v 1.492691 0.000000 1.521100
v 1.492691 0.000000 -1.492691
v 1.492691 0.000000 -4.478073
v 1.492691 0.000000 3.731727
v 1.492691 0.000000 0.760550
v 1.492691 0.000000 -2.239036
v 1.492691 0.000000 -5.224418
v 1.492691 0.000000 5.224418
v 1.492691 0.000000 2.253241
v 1.492691 0.000000 -0.746345
v 1.492691 0.000000 -3.731727
v 1.492691 0.000000 5.597591
v 1.492691 0.000000 -5.597591
v 1.492691 0.134070 5.597591
v 1.492691 0.127788 -5.970764
v 1.492691 0.127788 -5.597591
v 1.492691 0.000000 3.358555
v 1.492691 0.000000 0.380275
v 1.492691 0.127836 2.985382
v 1.492691 0.127836 3.358555
v 1.492691 0.114443 0.760550
v 1.492691 0.114443 0.380275
v 1.492691 0.000000 -1.865864
v 1.492691 0.104714 -2.239036
v 1.492691 0.104714 -1.865864
v 1.492691 0.000000 5.970764
v 1.492691 0.134070 5.970764
v 1.492691 0.002926 2.985382
v 1.492691 0.002926 3.358555
v 1.492691 0.001220 0.760550
v 1.492691 0.001220 0.380275
v 1.492691 0.003983 -2.239036
v 1.492691 0.003983 -1.865864
v 1.492691 0.003593 -5.970764
v 1.492691 0.003593 -5.597591
v 1.492691 -0.000058 5.597591
v 1.492691 -0.000058 5.970764
vn -1.0000 -0.0000 -0.0000
vn -0.0000 -0.0000 -1.0000
vn -0.0000 -0.0000 1.0000
vn -0.0000 1.0000 -0.0000
vn 1.0000 -0.0000 -0.0000
vt 0.000000 0.000000
vt 0.500000 0.687500
vt 0.000000 0.687500
vt 0.500000 0.031250
vt 0.000000 0.031250
vt 0.500000 0.250000
vt 0.000000 0.250000
vt 0.500000 0.468155
vt 0.000000 0.468155
vt 0.000000 0.656250
vt 0.500000 0.656250
vt 0.000000 0.625000
vt 0.500000 0.625000
vt 0.000000 0.436310
vt 0.500000 0.436310
vt 0.625000 0.468155
vt 0.625000 0.250000
vt 0.000000 0.218750
vt 0.500000 0.218750
vt 0.000000 0.187500
vt 0.500000 0.187500
vt 0.000000 0.968750
vt 0.500000 0.968750
vt 0.500000 1.000000
vt 0.000000 1.000000
vt 0.625000 0.031250
vt 0.500000 0.000000
vt 0.000000 0.937500
vt 0.500000 0.937500
vt 0.000000 0.750000
vt 0.500000 0.750000
vt 0.500000 0.812500
vt 0.000000 0.812500
vt 0.000000 0.500000
vt 0.500000 0.500000
vt 0.500000 0.562500
vt 0.000000 0.562500
vt 0.500000 0.311310
vt 0.000000 0.311310
vt 0.500000 0.062500
vt 0.000000 0.062500
vt 0.000000 0.875000
vt 0.500000 0.875000
vt 0.625000 0.687500
vt 0.000000 0.372621
vt 0.500000 0.372621
vt 0.000000 0.125000
vt 0.500000 0.125000
vt 0.625000 0.500000
vt 0.625000 0.750000
vt 0.625000 0.062500
vt 0.625000 0.125000
vt 0.625000 0.311310
vt 0.625000 0.372621
vt 0.625000 0.562500
vt 0.625000 0.625000
vt 0.625000 0.812500
vt 0.625000 0.875000
vt 0.625000 0.187500
vt 0.625000 0.436310
vt 0.625000 0.937500
vt 0.625000 0.968750
vt 0.625000 0.000000
vt 0.625000 1.000000
vt 0.625000 0.218750
vt 0.625000 0.656250
s 0
usemtl Material.002
f 5/1/1 24/1/1 27/1/1 26/1/1
f 44/2/2 12/3/2 31/3/2 63/2/2
f 18/1/1 1/1/1 21/1/1 20/1/1
f 50/4/2 18/5/2 20/5/2 53/4/2
f 2/1/1 19/1/1 23/1/1 22/1/1
f 34/1/2 2/1/2 22/1/2 54/1/2
f 25/1/1 11/1/1 29/1/1 28/1/1
f 37/6/2 5/7/2 26/7/2 58/6/2
f 57/8/2 25/9/2 28/9/2 61/8/2
f 12/1/1 30/1/1 32/1/1 31/1/1
f 30/10/3 62/11/3 64/11/3 32/10/3
f 32/10/4 64/11/4 63/2/4 31/3/4
f 11/14/3 43/15/3 60/15/3 29/14/3
f 87/16/2 57/8/2 61/8/2 91/16/2
f 29/14/4 60/15/4 61/8/4 28/9/4
f 68/17/2 37/6/2 58/6/2 88/17/2
f 24/18/3 56/19/3 59/19/3 27/18/3
f 27/18/4 59/19/4 58/6/4 26/7/4
f 19/22/3 51/23/3 55/23/3 23/22/3
f 65/1/2 34/1/2 54/1/2 84/1/2
f 23/22/4 55/23/4 54/24/4 22/25/4
f 81/26/2 50/4/2 53/4/2 83/26/2
f 21/1/4 52/27/4 53/4/4 20/5/4
f 1/1/3 33/1/3 52/1/3 21/1/3
f 75/44/2 44/2/2 63/2/2 93/44/2
f 33/1/3 95/1/3 96/1/3 52/1/3
f 52/27/4 96/63/4 83/26/4 53/4/4
f 55/23/4 85/62/4 84/64/4 54/24/4
f 51/23/3 82/62/3 85/62/3 55/23/3
f 59/19/4 89/65/4 88/17/4 58/6/4
f 56/19/3 86/65/3 89/65/3 59/19/3
f 60/15/4 90/60/4 91/16/4 61/8/4
f 43/15/3 74/60/3 90/60/3 60/15/3
f 64/11/4 94/66/4 93/44/4 63/2/4
f 62/11/3 92/66/3 94/66/3 64/11/3
f 88/17/5 89/65/5 98/65/5 97/17/5
f 91/16/5 90/60/5 99/60/5 100/16/5
f 93/44/5 94/66/5 102/66/5 101/44/5
f 84/64/5 85/62/5 104/62/5 103/64/5
f 83/26/5 96/63/5 106/63/5 105/26/5
usemtl Material.003
f 8/12/4 40/13/4 62/11/4 30/10/4
f 10/20/4 42/21/4 56/19/4 24/18/4
f 13/28/4 45/29/4 51/23/4 19/22/4
f 4/30/4 36/31/4 49/32/4 17/33/4
f 3/34/4 35/35/4 48/36/4 16/37/4
f 5/7/4 37/6/4 47/38/4 15/39/4
f 18/5/4 50/4/4 46/40/4 14/41/4
f 9/42/4 41/43/4 45/29/4 13/28/4
f 7/45/4 39/46/4 43/15/4 11/14/4
f 6/47/4 38/48/4 42/21/4 10/20/4
f 17/33/4 49/32/4 41/43/4 9/42/4
f 16/37/4 48/36/4 40/13/4 8/12/4
f 15/39/4 47/38/4 39/46/4 7/45/4
f 14/41/4 46/40/4 38/48/4 6/47/4
f 12/3/4 44/2/4 36/31/4 4/30/4
f 25/9/4 57/8/4 35/35/4 3/34/4
f 57/8/4 87/16/4 66/49/4 35/35/4
f 44/2/4 75/44/4 67/50/4 36/31/4
f 46/40/4 77/51/4 69/52/4 38/48/4
f 47/38/4 78/53/4 70/54/4 39/46/4
f 48/36/4 79/55/4 71/56/4 40/13/4
f 49/32/4 80/57/4 72/58/4 41/43/4
f 38/48/4 69/52/4 73/59/4 42/21/4
f 39/46/4 70/54/4 74/60/4 43/15/4
f 41/43/4 72/58/4 76/61/4 45/29/4
f 50/4/4 81/26/4 77/51/4 46/40/4
f 37/6/4 68/17/4 78/53/4 47/38/4
f 35/35/4 66/49/4 79/55/4 48/36/4
f 36/31/4 67/50/4 80/57/4 49/32/4
f 45/29/4 76/61/4 82/62/4 51/23/4
f 42/21/4 73/59/4 86/65/4 56/19/4
f 40/13/4 71/56/4 92/66/4 62/11/4
